<?xml version="1.0" encoding="utf-8"?>
<!-- Generator: Adobe Illustrator 21.1.0, SVG Export Plug-In . SVG Version: 6.00 Build 0)  -->
<svg version="1.1" id="Layer_1" xmlns="http://www.w3.org/2000/svg" xmlns:xlink="http://www.w3.org/1999/xlink" x="0px" y="0px"
	 viewBox="0 0 572.8 130.4" style="enable-background:new 0 0 572.8 130.4;" xml:space="preserve">
<style type="text/css">
	.st0{fill:#FFFFFF;}
	.st1{fill:#7BBAB3;}
</style>
<g>
	<g>
		<path class="st0" d="M228.9,62.9c0,0-0.4,4.6-1.1,5.9c-0.2,0.6-0.8,1.4-1.8,2.4c-1.9,2-4.2,3-6.9,3h-1V80h1.3
			c4.5,0,8.3-1.6,11.5-4.7c2.1-2.1,3.4-4.3,4-6.6l0.5-5.9V38.1h-6.5V62.9z"/>
	</g>
	<g>
		<path class="st0" d="M556.6,38.3c-9,0-16.2,7.3-16.2,16.2c0,2.7,0.7,5.3,1.9,7.6h-12.8v-7.9c0-4.4-1.6-8.1-4.6-11.2
			c-3.1-3.1-6.8-4.7-11.1-4.8h-0.4c-4.5,0-8.3,1.6-11.4,4.7c-3,3-4.5,6.6-4.7,10.7h6.4c0.2-2.4,1.1-4.5,2.8-6.2
			c1.9-1.9,4.2-2.8,6.8-2.9h0.4c2.5,0.1,4.6,1,6.5,2.8c1.9,2,2.8,4.3,2.8,7.1v7.7h-39.6V36h-6.2v26.1h-18V36h-6.2v26.1H437V38.2
			h-6.5v24.7c0,0-0.4,4.6-1.1,5.9c-0.2,0.6-0.8,1.4-1.8,2.4c-1.9,2-4.2,3-6.9,3h-1V80h1.3c4.5,0,8.3-1.6,11.5-4.7
			c2.1-2.1,3.4-4.3,4-6.6l0.1-0.8h111c2.6,1.7,5.7,2.8,9,2.8c9,0,16.2-7.3,16.2-16.2S565.5,38.3,556.6,38.3z M556.6,64.4
			c-5.4,0-9.9-4.4-9.9-9.9c0-5.4,4.4-9.9,9.9-9.9s9.9,4.4,9.9,9.9C566.5,60,562,64.4,556.6,64.4z"/>
	</g>
	<g>
		<path class="st0" d="M335.7,62.2L335.7,62.2V36h-6.2v26.1h-18.1V36h-6.2v26.1h-17.5V54c0-4.4-1.6-8.1-4.6-11.2
			c-2.6-2.6-5.7-4.2-9.3-4.6l18.6-18.6l-4.4-4.4L262.1,41c-0.7,0.5-1.4,1.1-2,1.7l4.5,4.5c1.9-1.9,4.2-2.9,6.8-2.9h0.4
			c2.5,0.1,4.6,1,6.5,2.8c1.9,2,2.8,4.3,2.8,7.1v7.8h-29.6v-47h-6.2v47v0V68h90.4V62.2z"/>
	</g>
	<g>
		<rect x="392.6" y="15.1" class="st0" width="6.2" height="52.9"/>
	</g>
	<g>
		<polygon class="st0" points="376.9,62.1 364.9,62.1 364.9,23.3 358.7,23.3 358.7,62.1 346.5,62.1 346.5,68 358.7,68 364.9,68 
			376.9,68 380,68 383.1,68 383.1,15.1 376.9,15.1 		"/>
	</g>
	<g>
		<path class="st0" d="M485.4,31.6c1.2,0,2.3-0.4,3.1-1.2c0.9-0.8,1.3-1.8,1.3-2.9s-0.4-2.1-1.3-2.9c-0.9-0.8-1.9-1.2-3.1-1.2
			s-2.2,0.4-3.1,1.2c-0.8,0.8-1.2,1.8-1.2,2.9s0.4,2.1,1.2,2.9C483.1,31.2,484.1,31.6,485.4,31.6z"/>
	</g>
	<g>
		<path class="st0" d="M475.3,31.6c1.2,0,2.2-0.4,3.1-1.2c0.8-0.8,1.2-1.8,1.2-2.9s-0.4-2.1-1.2-2.9c-0.8-0.8-1.8-1.2-3.1-1.2
			s-2.3,0.4-3.1,1.2c-0.9,0.8-1.3,1.8-1.3,2.9s0.4,2.1,1.3,2.9C473,31.2,474.1,31.6,475.3,31.6z"/>
	</g>
	<g>
		<path class="st0" d="M313.3,31.6c1.2,0,2.3-0.4,3.1-1.2c0.9-0.8,1.3-1.8,1.3-2.9s-0.4-2.1-1.3-2.9c-0.9-0.8-1.9-1.2-3.1-1.2
			s-2.2,0.4-3.1,1.2c-0.8,0.8-1.2,1.8-1.2,2.9s0.4,2.1,1.2,2.9C311.1,31.2,312.1,31.6,313.3,31.6z"/>
	</g>
	<g>
		<path class="st0" d="M303.3,31.6c1.2,0,2.2-0.4,3.1-1.2c0.8-0.8,1.2-1.8,1.2-2.9s-0.4-2.1-1.2-2.9c-0.8-0.8-1.8-1.2-3.1-1.2
			s-2.3,0.4-3.1,1.2c-0.9,0.8-1.3,1.8-1.3,2.9s0.4,2.1,1.3,2.9C301,31.2,302,31.6,303.3,31.6z"/>
	</g>
	<g>
		<path class="st0" d="M456.2,70.9c-1.2,0-2.3,0.4-3.1,1.2c-0.9,0.8-1.3,1.8-1.3,2.9c0,1.1,0.4,2.1,1.3,2.9c0.9,0.8,1.9,1.2,3.1,1.2
			s2.2-0.4,3.1-1.2c0.8-0.8,1.2-1.8,1.2-2.9c0-1.1-0.4-2.1-1.2-2.9C458.5,71.3,457.5,70.9,456.2,70.9z"/>
	</g>
	<g>
		<path class="st0" d="M332.6,70.9c-1.2,0-2.3,0.4-3.1,1.2c-0.9,0.8-1.3,1.8-1.3,2.9c0,1.1,0.4,2.1,1.3,2.9c0.9,0.8,1.9,1.2,3.1,1.2
			s2.2-0.4,3.1-1.2c0.8-0.8,1.2-1.8,1.2-2.9c0-1.1-0.4-2.1-1.2-2.9C334.9,71.3,333.9,70.9,332.6,70.9z"/>
	</g>
	<g>
		<path class="st0" d="M513.5,31.6c1.2,0,2.2-0.4,3.1-1.2c0.8-0.8,1.2-1.8,1.2-2.9s-0.4-2.1-1.2-2.9c-0.8-0.8-1.8-1.2-3.1-1.2
			c-1.2,0-2.3,0.4-3.1,1.2c-0.9,0.8-1.3,1.8-1.3,2.9s0.4,2.1,1.3,2.9C511.2,31.2,512.2,31.6,513.5,31.6z"/>
	</g>
	<g>
		<path class="st0" d="M360.2,73.6c0.5-0.5,1.2-0.8,1.9-0.8h0.1c0.8,0,1.4,0.3,2,0.8c0.2,0.2,0.4,0.5,0.6,0.8h2
			c-0.2-0.8-0.6-1.5-1.2-2.1c-0.9-0.9-2-1.4-3.3-1.4h-0.1c-1.3,0-2.4,0.5-3.3,1.4c-0.9,0.9-1.4,2-1.4,3.3v1.5h-1.7v1.7h11v-1.7h-7.4
			v-1.4C359.4,74.9,359.7,74.2,360.2,73.6z"/>
	</g>
</g>
<g>
	<g>
		<g>
			<path class="st1" d="M69.5,75.8H33c-2.2,0-4.3-1.2-5.4-3.1L9.3,41c-1.1-1.9-1.1-4.3,0-6.3L27.6,3.1C28.7,1.2,30.7,0,33,0h36.5
				c2.2,0,4.3,1.2,5.4,3.1l18.3,31.6c1.1,1.9,1.1,4.3,0,6.3L74.9,72.7C73.8,74.6,71.8,75.8,69.5,75.8z M36.6,63.3h29.3l14.6-25.4
				L65.9,12.6H36.6L22,37.9L36.6,63.3z"/>
		</g>
	</g>
	<g>
		<g>
			<path class="st1" d="M69.5,130.4H38c-2.2,0-4.3-1.2-5.4-3.1L16.8,100c-1.1-1.9-1.1-4.3,0-6.3l15.8-27.3c1.1-1.9,3.2-3.1,5.4-3.1
				h31.5c2.2,0,4.3,1.2,5.4,3.1l15.8,27.3c1.1,1.9,1.1,4.3,0,6.3l-15.8,27.3C73.8,129.2,71.7,130.4,69.5,130.4z M41.6,117.9h24.3
				l12.1-21l-12.1-21H41.6l-12.1,21L41.6,117.9z"/>
		</g>
	</g>
	<g>
		<g>
			<path class="st1" d="M163.8,130.3h-22.4c-2.2,0-4.3-1.2-5.4-3.1l-11.2-19.4c-1.1-1.9-1.1-4.3,0-6.3L136,82.1
				c1.1-1.9,3.2-3.1,5.4-3.1h22.4c2.2,0,4.3,1.2,5.4,3.1l11.2,19.4c1.1,1.9,1.1,4.3,0,6.3l-11.2,19.4
				C168.1,129.1,166,130.3,163.8,130.3z M145,117.7h15.1l7.6-13.1l-7.6-13.1H145l-7.6,13.1L145,117.7z"/>
		</g>
	</g>
	<g>
		<g>
			<path class="st1" d="M130.2,110.9H89.7c-2.2,0-4.3-1.2-5.4-3.1L64.1,72.7c-1.1-1.9-1.1-4.3,0-6.3l20.2-35.1
				c1.1-1.9,3.2-3.1,5.4-3.1l0,0l40.5,0c2.2,0,4.3,1.2,5.4,3.1l20.2,35.1c1.1,1.9,1.1,4.3,0,6.3l-20.2,35.1
				C134.5,109.7,132.5,110.9,130.2,110.9z M93.4,98.3h33.2l16.6-28.8l-16.6-28.8l-33.2,0L76.8,69.6L93.4,98.3z"/>
		</g>
	</g>
	<g>
		<g>
			<path class="st1" d="M6.3,57.9c-1.1,0-2.2-0.3-3.2-0.9c-3-1.8-4-5.6-2.2-8.6L27.6,3.1C28.7,1.2,30.8,0,33,0h52.4
				c3.5,0,6.3,2.8,6.3,6.3c0,3.5-2.8,6.3-6.3,6.3H36.6L11.7,54.8C10.5,56.8,8.4,57.9,6.3,57.9z"/>
		</g>
	</g>
	<g>
		<g>
			<path class="st1" d="M163.7,130.3h-35c-3.5,0-6.3-2.8-6.3-6.3c0-3.5,2.8-6.3,6.3-6.3h31.4l16.8-28.9c1.7-3,5.6-4,8.6-2.3
				c3,1.7,4,5.6,2.3,8.6l-18.6,32C168,129.1,166,130.3,163.7,130.3z"/>
		</g>
	</g>
</g>
<g>
	<g>
		<path class="st0" d="M218.2,124V92.9h4.8V124H218.2z"/>
	</g>
	<g>
		<path class="st0" d="M250.5,92.8V124l-18-19.4V124h-4.4V92.8l18,19.8V92.8H250.5z"/>
	</g>
	<g>
		<path class="st0" d="M278.1,92.8V124l-18-19.4V124h-4.4V92.8l18,19.8V92.8H278.1z"/>
	</g>
	<g>
		<path class="st0" d="M299.3,92.6c2.2,0,4.3,0.4,6.2,1.2c2,0.8,3.6,2,5.1,3.4c1.4,1.4,2.6,3.1,3.4,5.1c0.8,1.9,1.2,4,1.2,6.2
			c0,2.1-0.4,4.1-1.2,6c-0.8,1.9-2,3.5-3.4,4.9c-1.4,1.4-3.1,2.5-5.1,3.4c-1.9,0.8-4,1.2-6.2,1.2s-4.3-0.4-6.2-1.2
			c-1.9-0.8-3.6-2-5-3.4c-1.4-1.4-2.6-3.1-3.4-4.9c-0.8-1.9-1.2-3.9-1.2-6c0-2.2,0.4-4.3,1.2-6.2c0.8-1.9,2-3.6,3.4-5.1
			c1.4-1.4,3.1-2.6,5-3.4C295,93,297.1,92.6,299.3,92.6z M299.3,119.7c1.6,0,3-0.3,4.4-0.9c1.4-0.6,2.6-1.4,3.7-2.4
			c1.1-1,1.9-2.2,2.5-3.5c0.6-1.4,0.9-2.8,0.9-4.4c0-1.7-0.3-3.2-0.9-4.6c-0.6-1.4-1.5-2.6-2.5-3.6c-1.1-1-2.3-1.8-3.7-2.4
			c-1.4-0.6-2.9-0.9-4.4-0.9s-3,0.3-4.4,0.9c-1.4,0.6-2.6,1.4-3.7,2.4c-1.1,1-1.9,2.2-2.5,3.6c-0.6,1.4-0.9,2.9-0.9,4.6
			c0,1.6,0.3,3.1,0.9,4.4c0.6,1.4,1.5,2.5,2.5,3.5c1.1,1,2.3,1.8,3.7,2.4C296.2,119.4,297.7,119.7,299.3,119.7z"/>
	</g>
	<g>
		<path class="st0" d="M330.5,112.8c0.6-1.1,1.2-2.2,1.6-3.1c0.5-0.9,1-2,1.7-3.2c0.6-1.2,1.3-2.4,1.9-3.7l5.2-10h5.2L330.5,124
			l-15.1-31.2h5.7L330.5,112.8z"/>
	</g>
	<g>
		<path class="st0" d="M364.2,124l-2.2-4.3h-17.1l-2.2,4.3h-4.6l15.2-31.2l15.5,31.2H364.2z M347.1,114.9h12.8l-6.5-12.3
			L347.1,114.9z"/>
	</g>
	<g>
		<path class="st0" d="M388.4,97.2h-8.8V124h-4.4V97.2h-9.3v-4.4h22.5V97.2z"/>
	</g>
	<g>
		<path class="st0" d="M394.9,124V92.9h4.8V124H394.9z"/>
	</g>
	<g>
		<path class="st0" d="M420.8,92.6c2.2,0,4.3,0.4,6.2,1.2c2,0.8,3.6,2,5.1,3.4c1.4,1.4,2.6,3.1,3.4,5.1c0.8,1.9,1.2,4,1.2,6.2
			c0,2.1-0.4,4.1-1.2,6c-0.8,1.9-2,3.5-3.4,4.9c-1.4,1.4-3.1,2.5-5.1,3.4c-2,0.8-4,1.2-6.2,1.2c-2.2,0-4.3-0.4-6.2-1.2
			c-1.9-0.8-3.6-2-5-3.4c-1.4-1.4-2.6-3.1-3.4-4.9c-0.8-1.9-1.2-3.9-1.2-6c0-2.2,0.4-4.3,1.2-6.2c0.8-1.9,2-3.6,3.4-5.1
			c1.4-1.4,3.1-2.6,5-3.4C416.6,93,418.6,92.6,420.8,92.6z M420.8,119.7c1.6,0,3-0.3,4.4-0.9c1.4-0.6,2.6-1.4,3.7-2.4
			c1.1-1,1.9-2.2,2.5-3.5c0.6-1.4,0.9-2.8,0.9-4.4c0-1.7-0.3-3.2-0.9-4.6c-0.6-1.4-1.5-2.6-2.5-3.6c-1.1-1-2.3-1.8-3.7-2.4
			c-1.4-0.6-2.9-0.9-4.4-0.9s-3,0.3-4.4,0.9c-1.4,0.6-2.6,1.4-3.7,2.4c-1.1,1-1.9,2.2-2.5,3.6c-0.6,1.4-0.9,2.9-0.9,4.6
			c0,1.6,0.3,3.1,0.9,4.4c0.6,1.4,1.5,2.5,2.5,3.5c1.1,1,2.3,1.8,3.7,2.4C417.8,119.4,419.3,119.7,420.8,119.7z"/>
	</g>
	<g>
		<path class="st0" d="M464.4,92.8V124l-18-19.4V124H442V92.8l18,19.8V92.8H464.4z"/>
	</g>
	<g>
		<path class="st0" d="M510.7,119.7v4.4h-18h-4.4v-4.4V92.9h4.4v26.8H510.7z"/>
	</g>
	<g>
		<path class="st0" d="M542.1,124l-2.2-4.3h-17.1l-2.2,4.3H516l15.2-31.2l15.5,31.2H542.1z M524.9,114.9h12.8l-6.5-12.3L524.9,114.9
			z"/>
	</g>
	<g>
		<path class="st0" d="M571.5,110.6c0.5,0.6,0.8,1.4,1,2.2c0.2,0.8,0.3,1.5,0.3,2.2c0,0.9-0.1,1.7-0.3,2.6c-0.2,0.8-0.5,1.5-1,2.2
			c-0.4,0.7-0.9,1.2-1.3,1.7c-0.5,0.5-1,0.9-1.6,1.4c-0.6,0.4-1.4,0.7-2.2,1c-0.8,0.2-1.5,0.3-2.2,0.3h-9.1h-4.4v-4.4v-9.1v-4.4
			v-9.1v-4.4h4.4h9.1c0.7,0,1.4,0.1,2.2,0.3c0.8,0.2,1.5,0.5,2.2,1c0.6,0.5,1.2,0.9,1.6,1.4c0.5,0.5,0.9,1,1.3,1.7
			c0.5,0.6,0.8,1.4,1,2.2c0.2,0.8,0.3,1.7,0.3,2.6c0,0.6-0.1,1.3-0.3,2.1c-0.2,0.8-0.5,1.5-1,2.1c-0.2,0.5-0.5,0.9-0.7,1.3
			c-0.2,0.4-0.6,0.7-1,0.9c0.4,0.2,0.7,0.5,1,0.9C571.1,109.7,571.3,110.2,571.5,110.6z M568.5,101.5c-0.1-0.6-0.3-1.1-0.6-1.6
			c-0.3-0.5-0.6-1-1-1.4c-0.4-0.4-0.8-0.7-1.3-1c-0.5-0.3-1-0.4-1.5-0.4h-9.1v9.1h9.5c1.1-0.2,1.9-0.7,2.6-1.4
			c0.7-0.8,1.1-1.6,1.3-2.5V102V101.5z M568.5,114.9c0-0.6-0.1-1.1-0.4-1.6c-0.2-0.5-0.6-1-1-1.4c-0.4-0.4-0.9-0.7-1.4-1
			c-0.5-0.3-1.1-0.4-1.6-0.4h-9.1v9.1h9.1c1.3-0.2,2.4-0.7,3.2-1.5C568.1,117.3,568.5,116.2,568.5,114.9z"/>
	</g>
</g>
</svg>
